<svg width="34" height="43" viewBox="0 0 34 43" fill="none" xmlns="http://www.w3.org/2000/svg">
<path d="M0 0V31.7649L16.5424 42.5879L33.1728 31.7649V0H0Z" fill="#2C39F2"/>
<path d="M26.1336 24.2855C26.4855 24.2855 26.8375 24.2855 27.1895 24.1095V27.6292C26.3095 27.8931 25.1656 28.1571 24.1098 28.1571C22.1739 28.1571 20.6781 27.4532 19.8862 26.0453C17.9503 27.4532 15.7506 28.3331 12.8468 28.2451C9.2392 28.2451 6.07151 26.1333 6.15951 22.4377C6.2475 17.6861 10.823 16.2783 14.6947 16.2783C16.1905 16.2783 17.9504 16.5423 19.2702 16.8062V16.1023C19.2702 14.2545 17.7744 12.9346 14.6947 12.9346C12.0549 12.9346 9.67916 13.5505 7.83134 14.2545V9.59093C9.41518 9.06298 12.4069 8.35905 15.3106 8.44704C21.118 8.53504 24.8137 10.8228 24.7257 16.9822L24.6377 22.9656C24.8137 24.0215 25.4296 24.2855 26.1336 24.2855ZM11.087 22.1737C11.087 23.6696 12.4949 24.7255 14.4307 24.7255C16.1905 24.7255 17.7744 24.2855 19.2702 23.1416V19.9739C18.3023 19.7099 16.8944 19.446 15.6626 19.446C13.2868 19.446 11.087 20.1499 11.087 22.1737Z" fill="white"/>
</svg>
