<svg width="201" height="43" viewBox="0 0 201 43" fill="none" xmlns="http://www.w3.org/2000/svg">
<path d="M68.8091 0.000274658L56.0504 21.7342L54.1145 25.8698L54.5545 22.1741L54.4665 0.000274658H44.6995V42.7641H44.7875H53.6746L66.5213 20.5903L68.2812 16.7186L67.9292 20.1503L68.0172 42.7641H77.7842L77.6962 0.000274658H68.8091Z" fill="white"/>
<path d="M19.5341 2.28882e-05H14.7826L0 42.7639H9.85504L19.2701 12.2308L28.6852 42.7639H38.9802L24.1976 2.28882e-05H19.5341Z" fill="white"/>
<path d="M116.149 0.000274658H88.4314V9.76732V42.7641H98.1984V9.76732H116.149V0.000274658Z" fill="white"/>
<path d="M143.514 42.7641H153.809L139.026 0.000274658H134.275H129.523L114.741 42.6761H124.596L127.06 34.5809H140.962L143.514 42.7641ZM129.699 26.6617L134.187 12.2311L138.586 26.6617H129.699Z" fill="white"/>
<path d="M167.712 0V31.7649L184.254 42.5879L200.884 31.7649V0H167.712Z" fill="#2C39F2"/>
<path d="M193.845 24.2855C194.197 24.2855 194.549 24.2855 194.901 24.1095V27.6292C194.021 27.8932 192.877 28.1571 191.821 28.1571C189.886 28.1571 188.39 27.4532 187.598 26.0453C185.662 27.4532 183.462 28.3331 180.559 28.2451C176.951 28.2451 173.783 26.1333 173.871 22.4377C173.959 17.6862 178.535 16.2783 182.406 16.2783C183.902 16.2783 185.662 16.5423 186.982 16.8062V16.1023C186.982 14.2545 185.486 12.9346 182.406 12.9346C179.767 12.9346 177.391 13.5506 175.543 14.2545V9.59094C177.127 9.06299 180.119 8.35906 183.022 8.44705C188.83 8.53504 192.525 10.8228 192.437 16.9822L192.349 22.9656C192.525 24.0215 193.141 24.2855 193.845 24.2855ZM178.799 22.1737C178.799 23.6696 180.207 24.7255 182.142 24.7255C183.902 24.7255 185.486 24.2855 186.982 23.1416V19.9739C186.014 19.71 184.606 19.446 183.374 19.446C180.998 19.446 178.799 20.1499 178.799 22.1737Z" fill="white"/>
</svg>
